<?xml version="1.0" encoding="utf-8"?>
<!-- Generator: Adobe Illustrator 17.0.0, SVG Export Plug-In . SVG Version: 6.00 Build 0)  -->
<!DOCTYPE svg PUBLIC "-//W3C//DTD SVG 1.1//EN" "http://www.w3.org/Graphics/SVG/1.1/DTD/svg11.dtd">
<svg version="1.1" id="Layer_1" xmlns="http://www.w3.org/2000/svg" xmlns:xlink="http://www.w3.org/1999/xlink" x="0px" y="0px"
	 width="187.53px" height="186.22px" viewBox="0 0 187.53 186.22" enable-background="new 0 0 187.53 186.22" xml:space="preserve">
<path fill="#4B535B" d="M160.07,158.76c9.98-12.11,15.97-27.63,15.97-44.55c0-21.8-9.95-41.27-25.56-54.12
	c-1.02-0.84-2.05-1.65-3.12-2.43c-2.71-2.73-4.39-6.51-4.39-10.67c0-8.38,6.8-15.18,15.18-15.18c4.1,0,7.82,1.63,10.55,4.28
	c1.14,1.5,2.23,3.04,3.27,4.62c9.83,14.83,15.56,32.62,15.56,51.75C187.53,118.35,177.03,141.79,160.07,158.76z"/>
<path fill="#DEE3E8" d="M147.36,57.66c1.07,0.78,2.1,1.59,3.12,2.43C149.33,59.42,148.29,58.6,147.36,57.66z"/>
<path fill="#DEE3E8" d="M171.97,40.71c-1.04-1.58-2.13-3.12-3.27-4.62C170.06,37.4,171.18,38.97,171.97,40.71z"/>
<circle fill="#4B535B" cx="131.627" cy="22.1" r="9.71"/>
<path fill="#4B535B" d="M129.74,169.1c0,5.91-3.63,10.99-8.79,13.11c-1.02,0.31-2.06,0.61-3.1,0.88c-0.76,0.2-1.52,0.4-2.29,0.58
	c-7,1.67-14.3,2.55-21.8,2.55C41.98,186.22,0,144.24,0,92.46C0,46.01,33.77,7.45,78.1,0c-0.02,0.01-0.03,0.02-0.03,0.04
	C40.79,6.7,12.5,39.28,12.5,78.48c0,44.01,35.67,79.68,79.68,79.68c6,0,11.84-0.66,17.45-1.92c1.67-0.37,3.32-0.79,4.95-1.27
	c0.33-0.03,0.66-0.04,0.99-0.04C123.39,154.93,129.74,161.28,129.74,169.1z"/>
<path fill="#DEE3E8" d="M109.63,156.24c1.52-0.71,3.19-1.15,4.95-1.27C112.95,155.45,111.3,155.87,109.63,156.24z"/>
<path fill="#DEE3E8" d="M120.95,182.21c-0.98,0.4-2.02,0.7-3.1,0.88C118.89,182.82,119.93,182.52,120.95,182.21z"/>
<path fill="#4B535B" d="M117.007,74.617h-0.55l-0.118,0.432l-0.589,0.236l-0.196-0.314l-0.314,0.55l0.314-0.118l0.275,0.314
	l-1.257,0.825l-0.864-0.157l-0.157,0.629l-0.746,0.668l0.039,0.314l-0.118,1.021l-0.707,0.157l-0.668,0.589h-0.511l-0.179,0.471
	l-0.175,0.471v1.336l-0.236,0.118v0.471l-0.432-0.039v0.589l0.843,1.454l0.414,0.589l0.629,0.314l0.511,0.118l0.393,0.55
	l-0.314,0.471L113,88.092l1.375,1.021l0.275,0.786l2.043,1.532l1.1,0.982l0.079-0.275l0.354,0.275l-0.236,0.301l0.511,0.485
	l0.275,0.825l0.589,0.432l0.157,0.354l0.314-0.157l0.275,0.707l-0.236,0.196l0.746,1.296l-0.039,0.589l0.668,2.475l-0.275,0.079
	l0.354,0.55l-0.354,0.471l0.354,0.471l-0.196,0.432l0.55,0.825l-0.786,0.825l0.589,0.707l-0.354,0.196v0.904v0.511l-0.236-0.157
	l-0.196,0.275l0.432,0.393l-0.314,0.629l-0.354-0.079l-0.236,0.668l-0.55,0.236v0.314l-0.943,0.039v0.471h-0.354l-0.393,0.314
	l-0.668,0.039v0.786l-0.511-0.118l-0.471,0.157l-0.943,0.589l-1.061,0.511l0.118-0.354l-0.275-0.354l-0.314,0.314l-0.354-0.079
	l-0.157-0.393l-0.196,0.236l0.236,0.707l0.039,0.471l-0.511,0.471l0.118,0.354l-0.314,0.314v0.393l-0.354,0.314l-1.1-0.668
	l0.629,0.629l-0.039,0.354l-0.236-0.157l-0.196,0.511l-1.925,0.746l-0.55,0.825l-0.432,0.157l-0.275,0.55l-0.864,0.314l-0.511-0.275
	l0.393-0.314l0.236-0.314h-0.314l0.118-2.947l0.236-0.354l0.53-0.314v-0.236v-0.157h-0.57l-0.393-0.589l-0.511,0.314l-0.393-0.825
	l0.432-0.471h0.864l0.57-0.511l-0.373-0.471l0.629-0.55l-0.255,0.393l0.805,0.354l0.196-0.589l1.061-0.196l0.275,0.786h0.253v-0.354
	l0.925,0.354l-0.511-0.55l0.393-0.314l-1.1-0.707l0.293-0.393l-0.411-0.825h0.825v-0.314l1.179,0.314l-0.196-1.021l1.179,0.196
	l0.196-0.471h0.55l0.589-0.746l0.55-0.079l0.196,0.393l0.432-0.393l0.157-0.707l-0.432-1.375l0.511-1.611l-0.196-0.825h-0.314
	l-0.039-0.589l-0.393-0.471l0.707-1.336l-0.196-0.904l0.275-0.275l-0.354-0.393l0.511-0.196l0.275-0.668l-0.629-0.707h-0.393
	l-0.511-0.746v-0.432l0.668-0.314l0.039-0.432l-0.393,0.262l-0.589-0.537l-0.039-0.354h-0.432l-0.432-0.943l-0.275,0.629L113,91.314
	l-0.039-0.432l-0.236-0.354l-0.039-1.021h-0.393l-0.354-1.1l-0.196,0.275l-1.571-1.336l-0.786-1.65h-0.471l-0.079-0.55h-0.511
	l-0.255-0.55l0.373-0.354l-0.157-0.275l-1.1-0.196l-1.807-1.375l-1.061-0.471l0.825-0.589l-0.275-0.668l1.139-0.118l0.275,0.354
	h0.432l0.314-0.511h0.196l-0.157-0.471l0.668-0.354l0.079-0.393l-0.471-0.314h-0.432l0.039-0.393l-0.196-0.196h-0.864l0.314-0.432
	h0.354l0.236-0.432l-1.65-1.061l-0.943,0.432l-0.432,0.629l-0.589-0.629l-0.314,0.196l-0.904-0.275l-0.511-1.139h-0.393l0.236-0.236
	l0.314-0.471h-0.314l0.393-0.354l-0.118-0.471l-0.354-0.039l-0.039-0.511l-0.354,0.589l-0.196,0.079l-0.118-0.825l-1.689-1.729
	l0.511-0.039l0.668-1.218l1.807,1.021l0.707-1.1l0.707,0.668l0.393-0.668l1.021,1.1l0.354-1.179l0.511-0.079v0.354l0.432,0.196
	l0.511-0.589l0.55,0.157l0.236-0.393v-0.629l1.336-0.511l0.236-0.471l0.825,0.825v0.354h0.471l0.568,0.55l0.729-0.157l0.393,0.275
	l0.236,0.039l0.668-0.314l0.746,0.314l-0.236,0.825h-0.314l-0.196,0.786L113,72.024v0.943h0.314l0.825,0.196v0.393l0.511,0.275
	h0.511v0.491l0.354-0.177l0.275,0.177l0.943-0.177l0.589,0.354L117.007,74.617z M125.652,85.862h0.216v0.076l-0.089,0.102h-0.127
	v-0.102V85.862z M127.083,86.269l0.045,0.114h0.102v-0.127l-0.216-0.102l-0.076,0.102L127.083,86.269z M126.937,86.638v0.064h0.051
	h0.095l-0.073-0.064H126.937z M126.11,87.033l-0.242,0.178c0,0-0.267,0.254-0.216,0.254c0.051,0,0.343,0,0.343,0v-0.102
	l-0.038-0.114l0.153-0.153l0.114,0.153l-0.064,0.14l0.14,0.013v-0.153L126.11,87.033z M126.11,87.834l-0.35,0.114
	c0,0-0.108,0.127,0,0.153c0.108,0.025,0.223-0.025,0.274,0c0.051,0.025,0.267-0.076,0.267-0.076v-0.14L126.11,87.834z
	 M126.619,87.618l-0.089,0.102c0,0,0.038,0.102,0.089,0.114c0.051,0.013,0.21-0.108,0.21-0.108v-0.108H126.619z M127.56,87.727
	l-0.331,0.044v0.127h0.165v-0.086h0.102L127.56,87.727z M127.56,88.343h-0.382l0.216,0.14c0,0,0.204,0.114,0.242,0
	c0.038-0.114,0-0.261,0-0.261L127.56,88.343z M127.7,87.465l0.076,0.153l-0.038,0.109c0,0,0.229,0.045,0.216,0
	c-0.013-0.045-0.127-0.261-0.127-0.261H127.7z M127.961,108.897h0.216v0.076l-0.089,0.102h-0.127v-0.102V108.897z M129.393,109.304
	l0.045,0.114h0.102v-0.127l-0.216-0.102l-0.076,0.102L129.393,109.304z M129.246,109.673v0.064h0.051h0.095l-0.073-0.064H129.246z
	 M128.419,110.067l-0.242,0.178c0,0-0.267,0.254-0.216,0.254c0.051,0,0.343,0,0.343,0v-0.102l-0.038-0.114l0.153-0.153l0.114,0.153
	l-0.064,0.14l0.14,0.013v-0.153L128.419,110.067z M128.419,110.869l-0.35,0.114c0,0-0.108,0.127,0,0.153
	c0.108,0.025,0.223-0.025,0.274,0s0.267-0.076,0.267-0.076v-0.14L128.419,110.869z M128.928,110.653l-0.089,0.102
	c0,0,0.038,0.102,0.089,0.114c0.051,0.013,0.21-0.108,0.21-0.108v-0.108H128.928z M129.87,110.761l-0.331,0.044v0.127h0.165v-0.086
	h0.102L129.87,110.761z M129.87,111.378h-0.382l0.216,0.14c0,0,0.204,0.114,0.242,0s0-0.261,0-0.261L129.87,111.378z M130.01,110.5
	l0.076,0.153l-0.038,0.109c0,0,0.229,0.045,0.216,0c-0.013-0.045-0.127-0.261-0.127-0.261H130.01z"/>
</svg>
